<?xml version="1.0" encoding="UTF-8" standalone="no"?>
<!-- Uploaded to: SVG Repo, www.svgrepo.com, Generator: SVG Repo Mixer Tools -->

<svg
   fill="#000000"
   height="800px"
   width="800px"
   version="1.1"
   viewBox="0 0 455.881 455.881"
   enable-background="new 0 0 455.881 455.881"
   id="svg162"
   sodipodi:docname="yellow-on.svg"
   inkscape:version="1.2.2 (b0a84865, 2022-12-01)"
   xmlns:inkscape="http://www.inkscape.org/namespaces/inkscape"
   xmlns:sodipodi="http://sodipodi.sourceforge.net/DTD/sodipodi-0.dtd"
   xmlns="http://www.w3.org/2000/svg"
   xmlns:svg="http://www.w3.org/2000/svg">
  <defs
     id="defs166" />
  <sodipodi:namedview
     id="namedview164"
     pagecolor="#ffffff"
     bordercolor="#000000"
     borderopacity="0.25"
     inkscape:showpageshadow="2"
     inkscape:pageopacity="0.0"
     inkscape:pagecheckerboard="0"
     inkscape:deskcolor="#d1d1d1"
     showgrid="false"
     inkscape:zoom="1.3700194"
     inkscape:cx="394.15501"
     inkscape:cy="401.08921"
     inkscape:window-width="1920"
     inkscape:window-height="925"
     inkscape:window-x="0"
     inkscape:window-y="25"
     inkscape:window-maximized="0"
     inkscape:current-layer="svg162" />
  <g
     id="g160">
    <path
       d="m321.218,257.555c15.516-20.46 23.717-44.881 23.717-70.624 0-31.563-12.379-61.151-34.857-83.314-22.474-22.158-52.261-34.124-83.828-33.668-30.591,0.433-59.412,12.708-81.154,34.564-21.741,21.855-33.867,50.741-34.145,81.335-0.238,26.228 8.011,51.088 23.855,71.894 25.721,33.776 39.887,75.149 39.887,116.498v45.244c0,20.069 16.327,36.396 36.396,36.396h33.854c20.069,0 36.396-16.328 36.396-36.396v-45.241c0.001-41.806 13.691-82.157 39.879-116.688zm-174.478-8.9c-13.808-18.132-20.997-39.803-20.79-62.67 0.499-54.935 45.588-100.26 100.512-101.037 27.553-0.37 53.493,10.035 73.084,29.352 19.597,19.321 30.389,45.116 30.389,72.632 0,22.442-7.147,43.729-20.669,61.56-27.593,36.385-42.45,78.833-43.058,122.93h-76.536c-0.627-43.669-15.817-87.161-42.932-122.767zm42.953,165.746v-6.072l76.647,8.781v2.374c0,1.25-0.13,2.468-0.336,3.659l-76.311-8.742zm0-21.17v-6.809h76.647v15.59l-76.647-8.781zm21.396,47.65c-8.057,0-15.082-4.48-18.731-11.077l64.567,7.397c-3.421,2.321-7.545,3.679-11.981,3.679h-33.855z"
       id="path132" />
    <path
       d="m153.776,198.213c-0.585-3.925-0.864-7.957-0.827-11.983 0.038-4.142-3.289-7.53-7.431-7.568-4.114-0.036-7.53,3.289-7.568,7.431-0.044,4.81 0.289,9.632 0.99,14.333 0.555,3.722 3.755,6.395 7.409,6.395 0.368,0 0.741-0.027 1.116-0.083 4.096-0.612 6.922-4.428 6.311-8.525z"
       id="path134" />
    <path
       d="m197.913,312.135c0.776,0 1.566-0.122 2.344-0.377 3.935-1.294 6.076-5.533 4.782-9.467-8.312-25.277-20.7-48.827-36.82-69.994-2.664-3.499-5.025-7.226-7.016-11.079-1.902-3.68-6.427-5.12-10.107-3.218-3.679,1.902-5.12,6.427-3.218,10.107 2.39,4.622 5.218,9.089 8.408,13.278 15.106,19.836 26.715,41.904 34.504,65.591 1.038,3.157 3.971,5.159 7.123,5.159z"
       id="path136" />
    <path
       d="m306.746,212.613c-3.804-1.639-8.217,0.117-9.855,3.921-2.376,5.518-5.451,10.781-9.139,15.643-2.503,3.3-1.856,8.005 1.444,10.508 1.355,1.028 2.947,1.524 4.526,1.524 2.267,0 4.507-1.023 5.982-2.969 4.419-5.827 8.107-12.143 10.963-18.772 1.639-3.804-0.116-8.217-3.921-9.855z"
       id="path138" />
    <path
       d="m227.941,111.938c41.352,0 74.994,33.643 74.994,74.995 0,2.351-0.108,4.72-0.321,7.041-0.378,4.125 2.658,7.775 6.783,8.154 0.233,0.021 0.464,0.032 0.694,0.032 3.833,0 7.103-2.923 7.46-6.815 0.254-2.775 0.384-5.605 0.384-8.412 0-49.623-40.371-89.995-89.994-89.995-4.142,0-7.5,3.358-7.5,7.5s3.358,7.5 7.5,7.5z"
       id="path140" />
    <path
       d="m227.941,57c4.142,0 7.5-3.358 7.5-7.5v-42c0-4.142-3.358-7.5-7.5-7.5s-7.5,3.358-7.5,7.5v42c0,4.142 3.358,7.5 7.5,7.5z"
       id="path142" />
    <path
       d="m152.065,71.82c1.39,2.407 3.91,3.752 6.502,3.752 1.272,0 2.562-0.324 3.743-1.006 3.587-2.071 4.817-6.658 2.746-10.245l-20.99-36.36c-2.072-3.588-6.658-4.817-10.245-2.746-3.587,2.071-4.817,6.658-2.746,10.245l20.99,36.36z"
       id="path144" />
    <path
       d="m388.22,272.115l-36.36-20.99c-3.588-2.072-8.175-0.842-10.245,2.746-2.071,3.587-0.842,8.174 2.746,10.245l36.36,20.99c1.181,0.682 2.47,1.006 3.743,1.006 2.592,0 5.113-1.346 6.502-3.752 2.071-3.587 0.841-8.174-2.746-10.245z"
       id="path146" />
    <path
       d="m67.661,104.366l36.36,20.99c1.181,0.682 2.47,1.006 3.743,1.006 2.592,0 5.113-1.346 6.502-3.752 2.071-3.587 0.842-8.174-2.746-10.245l-36.36-20.99c-3.587-2.072-8.174-0.842-10.245,2.746-2.071,3.587-0.842,8.173 2.746,10.245z"
       id="path148" />
    <path
       d="m408.68,180.74h-42c-4.142,0-7.5,3.358-7.5,7.5s3.358,7.5 7.5,7.5h42c4.142,0 7.5-3.358 7.5-7.5s-3.357-7.5-7.5-7.5z"
       id="path150" />
    <path
       d="m96.7,188.24c0-4.142-3.358-7.5-7.5-7.5h-42c-4.142,0-7.5,3.358-7.5,7.5s3.358,7.5 7.5,7.5h42c4.143,0 7.5-3.358 7.5-7.5z"
       id="path152" />
    <path
       d="m348.117,126.362c1.272,0 2.562-0.324 3.743-1.006l36.36-20.99c3.587-2.071 4.817-6.658 2.746-10.245-2.071-3.587-6.659-4.817-10.245-2.746l-36.36,20.99c-3.587,2.071-4.817,6.658-2.746,10.245 1.389,2.406 3.911,3.752 6.502,3.752z"
       id="path154" />
    <path
       d="m104.021,251.125l-36.36,20.99c-3.587,2.071-4.817,6.658-2.746,10.245 1.389,2.406 3.91,3.752 6.502,3.752 1.272,0 2.562-0.324 3.743-1.006l36.36-20.99c3.587-2.071 4.817-6.658 2.746-10.245-2.07-3.588-6.66-4.817-10.245-2.746z"
       id="path156" />
    <path
       d="m293.571,74.566c1.181,0.682 2.47,1.006 3.743,1.006 2.592,0 5.113-1.346 6.502-3.752l20.99-36.36c2.071-3.587 0.841-8.174-2.746-10.245-3.586-2.071-8.174-0.842-10.245,2.746l-20.99,36.36c-2.071,3.587-0.841,8.174 2.746,10.245z"
       id="path158" />
  </g>
  <path
     style="fill:#ffff18;fill-opacity:1;stroke-width:0.516051;stroke-linecap:round;stroke-linejoin:round;stroke-dashoffset:1.6"
     d="m 395.3069,147.70121 c -31.23408,0.29274 -62.12121,10.16886 -88.68533,26.39749 -47.9205,28.95104 -81.10953,81.04327 -86.37821,136.85395 -3.98206,42.24822 7.22973,85.83811 31.96106,120.43095 16.13789,21.99914 31.37122,44.79138 42.83443,69.5997 22.59828,46.78944 35.54595,98.51786 36.03254,150.5429 2.21438,3.94143 8.38384,1.02632 12.21755,1.92457 41.21035,0 82.42071,0 123.63106,0 4.02334,-2.06667 1.33214,-8.34099 2.36893,-12.13955 2.2003,-62.03229 22.09654,-123.02031 54.95629,-175.66471 13.02936,-21.23445 30.1069,-40.13213 40.12964,-63.22045 11.84657,-25.66663 17.44204,-54.17099 15.8109,-82.41698 -1.54898,-42.81601 -19.36918,-84.84048 -49.11412,-115.69901 -33.08449,-35.64195 -81.1905,-56.97374 -129.90684,-56.59551 -1.95263,-0.0292 -3.90514,-0.0229 -5.8579,-0.0134 z m 8.63925,24.06016 c 26.5843,0.84872 52.96903,8.25752 75.80442,22.06145 40.51327,23.3671 68.72812,66.57942 75.06024,112.74789 1.38313,12.34786 1.61695,24.88103 0.61872,37.32554 -1.49156,9.83934 -16.74378,12.43858 -21.32156,3.60682 -2.2517,-11.11498 -0.39116,-22.84518 -1.76064,-34.24621 -3.56659,-32.50364 -19.7652,-63.23931 -44.39591,-84.72231 -22.52212,-20.62901 -52.50505,-32.34176 -82.94257,-33.50767 -5.38407,-0.29387 -11.96665,-0.30101 -14.847,-5.91858 -3.84709,-6.44762 -0.012,-16.08246 7.75537,-16.97057 1.99123,-0.32226 4.01549,-0.3739 6.02893,-0.37636 z M 256.93352,315.54213 c 6.79169,0.3197 10.56356,7.65096 9.73983,13.8399 0.0479,8.21351 1.96538,16.5683 0.9181,24.70454 -2.61772,5.97313 -9.81002,8.70609 -15.69036,5.91917 -7.74048,-2.95606 -6.58845,-12.58386 -7.55008,-19.25298 0.002,-7.71248 -3.18413,-17.35394 3.72942,-23.14349 2.43798,-2.02636 5.85982,-1.96736 8.85309,-2.06714 z m 275.59345,58.37194 c 7.57339,-0.84189 14.15978,7.33507 11.42062,14.49854 -5.04609,12.68344 -11.99367,24.76381 -20.67289,35.30972 -5.25115,5.11019 -15.45864,3.5765 -18.21656,-3.54693 -2.64566,-5.97728 0.87504,-12.02772 4.47353,-16.70975 6.3622,-8.32621 9.77319,-18.5977 16.12096,-26.91418 1.72003,-1.93844 4.36496,-2.6414 6.87434,-2.6374 z m -260.99226,8.85737 c 8.08568,-0.002 11.08193,8.67304 14.7637,14.28755 13.77829,20.5417 29.05546,40.14363 40.66242,62.07667 12.47419,22.94077 23.35221,46.73028 31.02481,71.73901 2.54722,6.63218 -2.31857,14.81594 -9.61152,14.85495 -5.33941,0.8971 -10.49457,-2.55451 -11.98375,-7.70547 -14.02009,-41.18508 -34.44327,-80.19697 -60.59584,-114.99533 -5.81662,-8.74006 -12.93302,-17.15333 -15.98981,-27.33842 -0.86215,-6.72887 4.78419,-13.4222 11.72999,-12.91896 z"
     id="path12548"
     transform="scale(0.56985125)" />
</svg>
