<?xml version="1.0" encoding="UTF-8" standalone="no"?>
<!-- Uploaded to: SVG Repo, www.svgrepo.com, Generator: SVG Repo Mixer Tools -->

<svg
   fill="#000000"
   height="800px"
   width="800px"
   version="1.1"
   viewBox="0 0 455.881 455.881"
   enable-background="new 0 0 455.881 455.881"
   id="svg162"
   sodipodi:docname="yellow-off.svg"
   inkscape:version="1.2.2 (b0a84865, 2022-12-01)"
   xmlns:inkscape="http://www.inkscape.org/namespaces/inkscape"
   xmlns:sodipodi="http://sodipodi.sourceforge.net/DTD/sodipodi-0.dtd"
   xmlns="http://www.w3.org/2000/svg"
   xmlns:svg="http://www.w3.org/2000/svg">
  <defs
     id="defs166" />
  <sodipodi:namedview
     id="namedview164"
     pagecolor="#ffffff"
     bordercolor="#000000"
     borderopacity="0.25"
     inkscape:showpageshadow="2"
     inkscape:pageopacity="0.0"
     inkscape:pagecheckerboard="0"
     inkscape:deskcolor="#d1d1d1"
     showgrid="false"
     inkscape:zoom="1.4142136"
     inkscape:cx="383.25188"
     inkscape:cy="409.06127"
     inkscape:window-width="1920"
     inkscape:window-height="925"
     inkscape:window-x="0"
     inkscape:window-y="25"
     inkscape:window-maximized="0"
     inkscape:current-layer="svg162" />
  <g
     id="g160">
    <path
       d="m321.218,257.555c15.516-20.46 23.717-44.881 23.717-70.624 0-31.563-12.379-61.151-34.857-83.314-22.474-22.158-52.261-34.124-83.828-33.668-30.591,0.433-59.412,12.708-81.154,34.564-21.741,21.855-33.867,50.741-34.145,81.335-0.238,26.228 8.011,51.088 23.855,71.894 25.721,33.776 39.887,75.149 39.887,116.498v45.244c0,20.069 16.327,36.396 36.396,36.396h33.854c20.069,0 36.396-16.328 36.396-36.396v-45.241c0.001-41.806 13.691-82.157 39.879-116.688zm-174.478-8.9c-13.808-18.132-20.997-39.803-20.79-62.67 0.499-54.935 45.588-100.26 100.512-101.037 27.553-0.37 53.493,10.035 73.084,29.352 19.597,19.321 30.389,45.116 30.389,72.632 0,22.442-7.147,43.729-20.669,61.56-27.593,36.385-42.45,78.833-43.058,122.93h-76.536c-0.627-43.669-15.817-87.161-42.932-122.767zm42.953,165.746v-6.072l76.647,8.781v2.374c0,1.25-0.13,2.468-0.336,3.659l-76.311-8.742zm0-21.17v-6.809h76.647v15.59l-76.647-8.781zm21.396,47.65c-8.057,0-15.082-4.48-18.731-11.077l64.567,7.397c-3.421,2.321-7.545,3.679-11.981,3.679h-33.855z"
       id="path132" />
    <path
       d="m153.776,198.213c-0.585-3.925-0.864-7.957-0.827-11.983 0.038-4.142-3.289-7.53-7.431-7.568-4.114-0.036-7.53,3.289-7.568,7.431-0.044,4.81 0.289,9.632 0.99,14.333 0.555,3.722 3.755,6.395 7.409,6.395 0.368,0 0.741-0.027 1.116-0.083 4.096-0.612 6.922-4.428 6.311-8.525z"
       id="path134" />
    <path
       d="m197.913,312.135c0.776,0 1.566-0.122 2.344-0.377 3.935-1.294 6.076-5.533 4.782-9.467-8.312-25.277-20.7-48.827-36.82-69.994-2.664-3.499-5.025-7.226-7.016-11.079-1.902-3.68-6.427-5.12-10.107-3.218-3.679,1.902-5.12,6.427-3.218,10.107 2.39,4.622 5.218,9.089 8.408,13.278 15.106,19.836 26.715,41.904 34.504,65.591 1.038,3.157 3.971,5.159 7.123,5.159z"
       id="path136" />
    <path
       d="m306.746,212.613c-3.804-1.639-8.217,0.117-9.855,3.921-2.376,5.518-5.451,10.781-9.139,15.643-2.503,3.3-1.856,8.005 1.444,10.508 1.355,1.028 2.947,1.524 4.526,1.524 2.267,0 4.507-1.023 5.982-2.969 4.419-5.827 8.107-12.143 10.963-18.772 1.639-3.804-0.116-8.217-3.921-9.855z"
       id="path138" />
    <path
       d="m227.941,111.938c41.352,0 74.994,33.643 74.994,74.995 0,2.351-0.108,4.72-0.321,7.041-0.378,4.125 2.658,7.775 6.783,8.154 0.233,0.021 0.464,0.032 0.694,0.032 3.833,0 7.103-2.923 7.46-6.815 0.254-2.775 0.384-5.605 0.384-8.412 0-49.623-40.371-89.995-89.994-89.995-4.142,0-7.5,3.358-7.5,7.5s3.358,7.5 7.5,7.5z"
       id="path140" />
  </g>
  <path
     style="fill:#72720c;fill-opacity:1;stroke-width:0.499925;stroke-linecap:round;stroke-linejoin:round;stroke-dashoffset:1.6"
     d="m 397.92572,147.53258 c -55.77663,0.32076 -110.05962,28.90662 -142.94391,73.76824 -23.33537,31.47183 -36.67466,70.67273 -35.22744,109.99245 -0.0364,29.02008 7.87768,57.96955 21.92169,83.31045 11.84343,21.01764 27.98681,39.16004 39.64798,60.22035 31.19625,53.48828 48.74638,114.82979 49.94582,176.86184 1.92491,3.86534 7.67287,1.06035 11.19079,1.91277 41.35746,1e-5 82.71492,0 124.07238,0 3.90426,-1.81307 1.45801,-7.72745 2.47073,-11.25984 2.52299,-55.34896 17.45602,-110.01034 44.57947,-158.45322 10.93898,-20.44611 24.75141,-38.89127 37.90511,-57.89545 18.88568,-29.07068 29.50501,-63.58831 28.8031,-98.34697 0.32232,-36.39662 -11.00399,-72.65841 -31.93842,-102.42831 -31.01951,-45.36646 -83.7759,-74.83263 -138.67346,-77.43854 -3.91367,-0.21386 -7.83472,-0.28761 -11.75384,-0.24377 z m 3.7427,24.55539 c 58.49419,-0.62015 114.58169,35.9792 139.34274,88.60843 11.43386,23.42757 16.07283,49.67718 14.83852,75.5279 0.3541,6.24613 -1.07994,14.53334 -8.20791,16.21733 -6.20955,2.13629 -14.73729,-1.96104 -14.34377,-9.22139 -1.06698,-16.89226 0.46102,-34.22532 -4.97461,-50.5609 -13.30511,-49.97404 -58.30206,-89.68802 -109.62601,-96.38941 -7.839,-1.83005 -16.16666,-0.20853 -23.81139,-2.80303 -9.59666,-3.55227 -7.46123,-20.22378 2.76214,-21.16072 1.33242,-0.1725 2.67854,-0.20167 4.02029,-0.21821 z m -145.9775,143.29132 c 6.32407,-0.18221 11.32475,5.63861 10.87326,11.82118 0.53713,9.21556 1.96534,18.57424 0.66142,27.69808 -3.94004,8.38849 -18.1534,8.15696 -20.99776,-0.94189 -2.79303,-10.39395 -1.71349,-20.95154 -2.04122,-31.73279 2.72263,-3.90958 6.32036,-7.47815 11.5043,-6.84458 z m 277.62089,58.36532 c 8.07886,-0.0346 13.91287,9.56327 9.92727,16.62941 -4.95545,11.8066 -11.4643,23.12651 -19.62927,33.00064 -5.50069,6.35473 -17.247,3.45542 -19.03664,-4.79645 -2.25782,-8.19626 5.24137,-14.42779 8.75735,-20.96599 4.95511,-6.9254 7.26017,-15.59619 13.04142,-21.89683 1.91813,-1.56874 4.54058,-1.94279 6.93987,-1.97078 z m -261.44997,9.12471 c 8.90864,0.41604 11.19387,10.19169 15.61574,16.14469 11.6461,17.09662 24.38506,33.38024 34.49117,51.52936 14.52992,25.32447 27.33894,52.00701 35.90462,79.99526 2.2058,5.73443 -0.49132,12.62698 -6.40954,14.75947 -5.83694,2.07653 -13.23267,-0.72092 -14.76775,-7.08488 -9.7047,-26.26819 -20.53684,-52.24684 -35.00025,-76.30383 -11.21073,-19.97295 -26.10105,-37.71902 -37.95923,-57.12043 -4.19932,-5.58759 -6.297,-15.19121 0.55837,-19.72098 2.1794,-1.55484 4.89153,-2.3558 7.56687,-2.19866 z"
     id="path12262"
     transform="scale(0.56985125)" />
</svg>
